<svg width="256" height="256" viewBox="0 0 256 256" fill="none" xmlns="http://www.w3.org/2000/svg">
<rect width="256" height="256" rx="128" fill="white"/>
<rect x="1.5" y="1.5" width="253" height="253" rx="126.5" stroke="black" stroke-opacity="0.06" stroke-width="3"/>
<path fill-rule="evenodd" clip-rule="evenodd" d="M211.575 77.6972C211.2 76.7205 210.549 75.5321 209.703 74.2461C208.01 71.6578 205.454 68.4834 202.622 65.4881V65.4718C199.594 62.4277 196.501 59.7905 193.994 58.0486C192.74 57.1859 191.601 56.5022 190.657 56.1277C190.185 55.9324 189.713 55.8022 189.257 55.7696C188.817 55.737 188.264 55.8184 187.84 56.2417L129.14 113.413C128.488 114.048 127.43 114.048 126.779 113.413L68.0781 56.2417C67.6549 55.8347 67.1014 55.7533 66.6619 55.7696C66.2223 55.8022 65.734 55.9324 65.2619 56.1277C64.3177 56.5022 63.1619 57.1859 61.9248 58.0486C59.4178 59.7905 56.3249 62.4439 53.297 65.4718V65.4881C50.4645 68.4834 47.9088 71.6578 46.2158 74.2461C45.3693 75.5321 44.7019 76.7205 44.3438 77.6972C44.1647 78.1856 44.0345 78.6739 44.0019 79.1135C43.9856 79.553 44.067 80.1228 44.5065 80.546L110.093 144.375C110.679 144.945 111.005 145.726 111.005 146.54L110.94 224.614C110.94 225.2 111.282 225.639 111.575 225.916C111.884 226.209 112.291 226.453 112.747 226.665C113.658 227.104 114.912 227.511 116.393 227.853C119.389 228.537 123.475 229.025 128 229.025C132.525 229.025 136.611 228.537 139.607 227.853C141.088 227.511 142.342 227.104 143.253 226.665C143.709 226.453 144.116 226.193 144.425 225.916C144.718 225.639 145.06 225.2 145.06 224.614L144.995 146.54C144.995 145.726 145.321 144.945 145.907 144.375L211.493 80.546C211.933 80.1228 212.014 79.553 211.998 79.1135C211.982 78.6577 211.835 78.1693 211.656 77.6972H211.575Z" fill="url(#paint0_linear_12706_9017)"/>
<defs>
<linearGradient id="paint0_linear_12706_9017" x1="44" y1="145.668" x2="210.419" y2="131.283" gradientUnits="userSpaceOnUse">
<stop offset="0.3" stop-color="#FF6A16"/>
<stop offset="0.542948" stop-color="#FF3227"/>
<stop offset="0.89" stop-color="#FF66DD"/>
</linearGradient>
</defs>
</svg>
